<?xml version="1.0" standalone="no"?>
<!DOCTYPE svg PUBLIC "-//W3C//DTD SVG 20010904//EN"
 "http://www.w3.org/TR/2001/REC-SVG-20010904/DTD/svg10.dtd">
<svg version="1.0" xmlns="http://www.w3.org/2000/svg"
 width="300.000000pt" height="313.000000pt" viewBox="0 0 300.000000 313.000000"
 preserveAspectRatio="xMidYMid meet">
<metadata>
Created by potrace 1.10, written by Peter Selinger 2001-2011
</metadata>
<g transform="translate(0.000000,313.000000) scale(0.100000,-0.100000)"
fill="#000000" stroke="none">
<path d="M1277 2543 c-43 -13 -77 -26 -75 -28 2 -2 35 4 73 14 211 56 451 23
630 -86 93 -57 155 -112 155 -140 0 -12 -3 -23 -6 -23 -3 0 -30 21 -59 48
-179 162 -455 228 -698 166 -32 -8 -68 -12 -80 -9 -14 4 -18 3 -9 -3 9 -6 -12
-21 -70 -50 -207 -103 -353 -285 -409 -511 -18 -71 -20 -105 -16 -215 2 -82
10 -146 19 -171 l16 -40 7 27 c4 15 2 42 -4 59 -25 72 -4 302 35 390 l16 37
29 -31 c16 -16 29 -34 29 -39 0 -5 9 -6 20 -3 12 4 27 1 35 -5 12 -10 17 -7
25 16 6 16 16 31 21 35 14 8 14 71 0 97 -16 30 4 30 36 1 24 -23 22 -24 37 24
7 24 -9 40 -23 23 -11 -13 -16 -11 -38 15 -20 23 -28 27 -39 18 -8 -6 -14 -18
-14 -26 0 -10 -6 -13 -16 -9 -9 3 -18 6 -20 6 -2 0 4 8 14 18 9 9 31 35 49 56
17 22 36 35 42 31 8 -4 4 -13 -11 -26 l-23 -19 24 -20 c33 -28 42 -25 36 13
-4 27 -3 29 7 16 54 -66 61 -73 65 -62 3 7 4 15 3 19 -1 3 15 19 34 36 20 17
36 37 36 45 0 13 3 13 25 -1 24 -16 25 -15 31 10 7 28 44 48 87 45 19 -1 27 4
28 16 0 15 2 14 11 -4 14 -29 24 -29 32 0 5 23 36 31 52 14 11 -11 21 -8 37 8
13 13 16 11 21 -10 9 -34 22 -31 35 6 9 28 14 30 38 24 16 -3 33 -11 38 -17 7
-8 6 -9 -4 -3 -8 5 -7 -2 5 -20 l17 -27 15 29 15 28 9 -27 c6 -17 17 -28 28
-28 9 0 34 -7 55 -16 21 -8 43 -13 51 -10 8 3 14 -4 16 -21 2 -14 10 -27 18
-29 22 -3 71 -30 73 -40 1 -5 5 -8 9 -7 4 2 11 -9 14 -25 4 -15 19 -37 33 -49
14 -13 22 -23 17 -23 -5 0 0 -10 11 -22 12 -13 30 -44 42 -70 19 -43 41 -63
41 -38 0 5 12 13 26 16 14 4 38 18 52 31 l27 25 16 -21 c10 -12 20 -39 24 -61
4 -22 10 -40 13 -40 4 0 7 -12 8 -27 2 -157 4 -181 20 -187 13 -5 14 -3 7 6
-13 18 -17 92 -5 84 6 -3 9 -17 8 -30 -2 -14 1 -30 6 -38 14 -20 1 165 -17
242 -20 82 -81 208 -139 284 -37 49 -43 62 -36 82 11 27 4 54 -14 55 -6 0 -2
4 9 9 19 8 19 9 -3 9 -22 1 -88 38 -127 72 -35 31 -187 90 -280 110 -133 28
-278 25 -378 -8z m378 -66 c44 -11 86 -24 93 -29 14 -12 17 -32 2 -23 -20 13
-123 35 -163 36 -23 0 -50 4 -60 8 -28 11 -173 -6 -252 -30 -124 -37 -232 -97
-315 -175 -24 -24 -46 -41 -48 -39 -9 8 122 124 183 163 156 98 377 134 560
89z m-225 -56 l-35 -29 39 -17 c38 -16 41 -16 54 2 7 10 12 30 9 46 -3 21 0
27 15 27 14 0 18 -5 13 -19 -4 -15 1 -20 26 -25 50 -10 59 -7 59 14 0 13 7 20
20 20 11 0 20 -4 20 -10 0 -5 -5 -10 -11 -10 -7 0 -10 -15 -7 -40 3 -34 1 -40
-15 -40 -14 0 -17 5 -12 20 4 14 2 20 -8 20 -8 0 -29 3 -46 6 -27 6 -31 4 -31
-15 0 -19 -6 -21 -49 -21 -31 0 -53 5 -61 15 -18 21 -40 19 -40 -5 0 -11 -7
-20 -15 -20 -8 0 -14 3 -14 8 1 4 1 22 0 40 -1 35 -21 46 -21 11 0 -18 -4 -20
-27 -14 -45 11 -47 29 -5 36 20 3 45 9 55 14 14 6 17 2 17 -21 l0 -29 32 33
c18 17 42 32 52 32 17 0 14 -5 -14 -29z m432 -23 c23 -13 57 -36 77 -53 79
-68 121 -108 121 -117 0 -5 -20 10 -45 33 -44 42 -129 103 -163 117 -32 14
-82 47 -82 54 0 9 38 -5 92 -34z m-92 -8 c44 -23 53 -55 23 -85 -31 -32 -124
7 -131 54 -8 51 41 65 108 31z m-499 -25 c22 -14 44 -23 49 -20 6 4 10 2 10
-3 0 -13 -27 -23 -43 -16 -17 6 -87 -23 -87 -36 0 -6 -8 -14 -17 -17 -10 -4
-41 -26 -69 -50 -48 -40 -72 -54 -60 -35 7 12 -23 52 -45 60 -16 6 -7 17 57
65 95 72 121 75 93 13 -13 -27 -45 -47 -36 -21 4 8 1 17 -5 21 -7 4 -8 3 -4
-4 4 -7 1 -12 -8 -12 -19 0 -73 -46 -64 -55 4 -4 21 3 37 15 17 12 31 17 31
11 0 -6 -11 -18 -26 -27 -16 -11 -22 -20 -15 -27 12 -12 74 36 63 48 -4 5 1 5
10 2 24 -8 41 18 44 66 2 23 3 43 3 45 3 10 49 -3 82 -23z m587 -56 c-24 -32
-19 -55 18 -71 24 -11 29 -10 50 17 22 28 24 29 41 12 16 -15 16 -17 1 -17 -9
0 -23 -8 -30 -18 -7 -10 -18 -22 -25 -26 -17 -10 -69 19 -89 49 -15 23 -15 27
2 53 10 15 17 33 16 40 -3 10 1 10 16 1 20 -12 20 -13 0 -40z m72 -14 c0 -14
-37 -31 -47 -21 -3 3 -3 17 1 31 6 22 9 24 26 15 11 -6 20 -17 20 -25z m101
-97 c43 -45 52 -65 34 -72 -9 -3 -15 0 -15 9 0 18 -46 72 -55 64 -3 -4 6 -24
20 -45 29 -42 28 -58 -2 -62 -22 -3 -97 74 -87 89 8 13 24 11 24 -3 0 -19 47
-74 55 -66 4 4 -1 20 -11 35 -28 41 -33 57 -22 71 16 19 27 15 59 -20z m119
-194 c0 -7 -7 -15 -16 -18 -12 -5 -15 -2 -10 10 7 17 -19 74 -34 74 -13 0 -13
-16 1 -41 6 -11 8 -25 6 -32 -3 -7 -10 3 -17 21 -7 17 -18 32 -26 32 -8 0 -14
-3 -14 -6 0 -13 24 -50 42 -65 17 -14 18 -17 5 -22 -19 -7 -30 6 -55 64 l-20
46 33 12 c18 6 36 19 40 29 5 13 13 4 35 -38 16 -30 29 -60 30 -66z m-1250 96
c13 -8 13 -10 -1 -10 -19 0 -57 -66 -45 -77 5 -4 13 1 20 11 6 10 21 30 32 45
18 21 24 23 37 13 11 -9 13 -21 8 -40 -13 -43 -45 -89 -59 -84 -10 3 -8 10 7
26 22 24 46 80 32 74 -6 -1 -20 -19 -33 -38 -25 -37 -60 -47 -66 -18 -3 18 36
108 47 108 3 0 13 -5 21 -10z"/>
<path d="M1690 2374 c-11 -12 -10 -18 6 -34 30 -29 70 -36 82 -13 12 22 6 35
-25 52 -30 15 -48 14 -63 -5z"/>
<path d="M1210 2345 c0 -23 2 -24 25 -13 23 10 23 12 7 24 -25 19 -32 17 -32
-11z"/>
<path d="M1046 2442 c-28 -15 -60 -37 -73 -49 -13 -13 -30 -23 -37 -23 -7 0
-13 -7 -13 -15 0 -11 10 -8 36 12 19 15 58 42 85 61 78 52 78 57 2 14z"/>
<path d="M2099 2284 c70 -92 86 -115 116 -174 52 -105 97 -260 75 -260 -6 0
-8 -5 -4 -11 13 -22 26 22 19 67 -3 24 -6 46 -5 49 0 3 -7 21 -15 41 -8 20
-12 40 -9 45 3 5 1 9 -3 9 -9 0 -37 59 -34 73 0 4 -2 7 -7 7 -4 0 -13 13 -19
28 -17 37 -104 144 -122 150 -10 3 -7 -5 8 -24z"/>
<path d="M813 2223 c-26 -32 -54 -64 -60 -71 -7 -7 -13 -20 -13 -29 0 -9 -10
-31 -21 -50 -12 -19 -19 -37 -15 -40 3 -3 1 -12 -5 -20 -6 -7 -9 -13 -5 -13 3
0 0 -16 -9 -36 -15 -36 -32 -164 -22 -164 3 0 10 30 16 68 7 37 21 96 33 132
24 74 85 190 100 190 5 0 7 4 4 8 -3 5 9 25 25 45 17 20 28 37 26 37 -3 0 -27
-26 -54 -57z"/>
<path d="M1198 2147 c-24 -35 -18 -245 8 -292 24 -44 54 -44 66 0 12 45 11
271 -2 295 -14 27 -54 26 -72 -3z m52 -9 c3 -90 0 -271 -4 -275 -3 -3 -12 -3
-21 0 -12 5 -15 29 -15 140 0 74 3 137 7 140 11 12 33 8 33 -5z"/>
<path d="M1366 2151 c-27 -30 -27 -256 0 -302 24 -40 34 -40 57 0 26 43 27
259 2 297 -19 29 -36 30 -59 5z m46 -144 c0 -77 -3 -141 -6 -144 -3 -3 -12 -3
-21 0 -12 5 -15 29 -15 140 0 74 3 137 7 141 4 4 14 5 22 4 11 -2 14 -28 13
-141z"/>
<path d="M1520 2165 c0 -3 11 -10 25 -15 l26 -10 -3 -137 c-3 -115 -6 -138
-18 -138 -13 0 -15 24 -18 143 -2 108 -6 142 -15 139 -7 -2 -12 -22 -12 -48 0
-24 -2 -46 -5 -49 -3 -3 -3 -46 0 -96 5 -86 25 -144 48 -144 5 0 18 21 30 46
19 39 22 60 21 152 -2 120 -16 162 -56 162 -13 0 -23 -2 -23 -5z"/>
<path d="M1680 2155 c-9 -11 -13 -57 -13 -153 -1 -174 16 -215 67 -158 28 31
28 33 28 169 0 98 -3 122 -18 138 -21 23 -47 25 -64 4z m48 -147 c-3 -119 -5
-143 -18 -143 -12 0 -15 22 -18 129 -3 141 -1 156 23 156 13 0 15 -19 13 -142z"/>
<path d="M2038 1792 c-73 -61 -107 -72 -222 -72 -61 0 -105 -4 -102 -9 6 -9
-45 -31 -73 -31 -9 0 -47 -25 -85 -55 -38 -30 -74 -55 -80 -55 -6 0 -18 10
-26 21 -8 12 -41 39 -72 59 -31 21 -56 39 -53 41 2 2 -8 5 -22 6 -14 0 -28 6
-32 11 -3 6 -51 13 -106 17 -122 8 -195 26 -245 59 -36 24 -39 24 -54 7 -9
-10 -16 -26 -16 -35 0 -12 -5 -16 -16 -12 -12 5 -15 1 -10 -22 2 -15 8 -48 11
-74 11 -81 25 -66 19 19 l-5 78 21 -28 c39 -49 137 -87 230 -87 63 0 74 -6 85
-38 4 -14 21 -30 41 -38 34 -14 42 -28 24 -39 -19 -12 -10 -45 21 -72 58 -51
76 -75 89 -117 23 -75 41 -121 57 -138 21 -23 10 -48 -21 -48 -41 0 -197 61
-248 97 -26 18 -50 33 -54 33 -10 0 -111 105 -117 123 -4 9 -11 17 -17 17 -17
0 27 -58 91 -121 61 -59 142 -107 236 -140 81 -29 255 -37 345 -15 137 32 266
114 354 224 46 58 104 161 104 184 0 7 -16 -20 -36 -61 -22 -43 -44 -76 -55
-78 -10 -3 -17 -9 -14 -13 5 -8 -39 -55 -117 -126 -19 -17 -46 -34 -61 -38
-15 -3 -27 -11 -27 -16 0 -6 -6 -10 -13 -10 -8 0 -28 -7 -45 -15 -44 -22 -75
-27 -84 -12 -5 8 -8 7 -8 -5 0 -17 -38 -28 -87 -25 -28 2 -29 9 -3 32 23 20
40 73 40 125 1 63 34 99 132 144 60 28 100 68 91 92 -3 8 -9 14 -13 14 -5 0
-8 15 -7 33 l2 32 82 7 c126 12 219 55 252 117 7 13 22 21 39 22 16 0 21 3 12
6 -8 3 -28 17 -43 29 -37 31 -49 30 -89 -4z m70 -16 c5 -25 -59 -81 -115 -100
-26 -9 -93 -21 -148 -26 -145 -13 -214 -41 -297 -117 -26 -25 -48 -52 -48 -59
0 -21 6 -18 55 32 49 48 165 110 190 100 25 -9 17 -34 -15 -41 -40 -9 -139
-74 -173 -114 -40 -48 -33 -57 11 -13 43 43 152 102 189 102 46 0 22 -29 -53
-65 -41 -20 -93 -54 -115 -76 -38 -38 -39 -41 -39 -106 0 -76 -16 -103 -62
-103 -41 0 -73 37 -88 101 -17 74 -51 130 -100 164 -22 15 -39 33 -37 39 8 23
44 16 82 -17 41 -35 72 -93 97 -177 11 -38 17 -45 42 -48 l29 -4 -6 67 c-12
132 -101 256 -221 311 -39 18 -84 27 -159 34 -57 5 -118 12 -133 16 -68 16
-143 71 -129 93 10 17 30 13 60 -13 37 -32 82 -44 210 -55 93 -8 118 -14 181
-46 50 -24 87 -51 116 -85 l42 -48 50 45 c86 77 167 110 304 124 130 12 168
24 216 69 43 41 59 45 64 16z m-816 -178 c76 -40 150 -122 177 -193 25 -65 28
-135 7 -135 -16 0 -26 21 -26 58 0 78 -108 209 -204 248 -30 12 -46 25 -46 37
0 25 24 21 92 -15z"/>
<path d="M2182 1664 c-16 -110 -67 -248 -89 -240 -8 3 -20 3 -26 -1 -7 -4 -2
-10 13 -14 l25 -7 -27 -1 c-18 -1 -32 -11 -47 -33 -30 -49 -128 -141 -191
-180 -62 -39 -144 -73 -210 -88 -69 -15 -238 -12 -305 5 -186 48 -341 173
-434 349 -37 71 -41 59 -6 -19 14 -31 23 -61 19 -67 -4 -7 -3 -8 4 -4 17 10
65 -66 49 -77 -8 -6 -7 -7 4 -4 17 6 99 -62 99 -82 0 -7 5 -9 10 -6 6 3 10 0
10 -8 0 -7 36 -32 80 -55 44 -22 78 -37 75 -32 -7 12 3 12 30 0 13 -6 15 -9 5
-9 -13 -1 -13 -2 0 -11 8 -5 23 -7 34 -4 10 4 22 0 26 -6 12 -19 246 -30 274
-13 6 4 18 8 26 8 45 4 51 6 45 15 -6 9 0 11 45 15 8 0 21 4 28 8 6 5 17 5 22
2 6 -3 10 0 10 8 0 14 27 28 57 31 7 1 20 11 28 24 9 12 22 22 29 22 15 0 73
55 112 105 14 19 30 32 35 29 5 -3 6 2 3 10 -3 9 2 23 11 33 17 16 17 16 11
-7 -7 -25 -7 -25 14 3 12 15 26 24 32 21 5 -3 8 0 7 7 -1 8 7 35 19 60 26 55
70 260 62 284 -3 9 -11 -23 -18 -71z"/>
<path d="M2127 1733 c-2 -5 -8 -37 -11 -73 -4 -36 -12 -71 -18 -78 -6 -7 -8
-15 -4 -19 3 -3 6 -1 6 6 0 7 5 9 10 6 14 -9 27 31 36 104 4 41 3 61 -4 61 -6
0 -13 -3 -15 -7z"/>
<path d="M661 1654 c-1 -41 43 -216 69 -269 11 -23 20 -45 20 -49 0 -4 6 -14
13 -21 13 -15 20 -24 55 -69 33 -43 27 -21 -9 30 -62 91 -111 219 -137 359 -8
39 -10 43 -11 19z"/>
<path d="M2249 1508 c0 -2 -2 -22 -5 -46 -3 -23 -11 -60 -19 -82 -8 -22 -12
-40 -9 -40 9 0 48 94 45 108 -1 8 2 19 7 25 7 8 5 16 -4 25 -8 7 -14 11 -15
10z"/>
<path d="M2181 1368 c-8 -18 -26 -49 -40 -68 -97 -132 -184 -207 -316 -270
-123 -60 -190 -74 -343 -74 -106 -1 -131 -4 -127 -14 7 -18 -70 -6 -100 14
-18 13 -17 14 13 8 19 -4 32 -2 32 4 0 16 -54 22 -66 7 -12 -16 -40 -3 -30 13
4 6 -7 18 -23 27 -38 19 -38 19 -44 -6 -4 -15 -2 -19 9 -15 8 3 14 2 14 -2 0
-4 14 -16 31 -26 17 -10 28 -21 25 -24 -4 -3 -33 -4 -66 -3 -48 2 -66 -2 -90
-19 -30 -21 -41 -62 -20 -75 6 -3 10 -26 10 -51 0 -28 -4 -43 -10 -39 -12 8
-30 -36 -30 -73 l0 -27 -130 0 c-78 0 -131 -4 -132 -10 -2 -5 9 -11 24 -13 16
-2 28 -8 28 -14 0 -6 7 -5 16 3 10 8 46 14 98 14 44 1 91 5 103 9 14 4 36 1
57 -9 24 -12 45 -15 68 -9 18 4 67 6 110 6 88 -2 98 5 108 74 5 33 4 44 -7 44
-9 0 -13 -14 -13 -45 l0 -45 -140 0 c-77 0 -143 -1 -146 -2 -4 -2 -8 16 -10
40 -2 23 0 42 5 42 5 0 7 -10 3 -22 -5 -19 -4 -20 10 -7 20 18 13 128 -9 146
-11 9 -12 16 -3 32 10 20 19 21 150 21 l140 0 0 -50 c0 -48 -12 -66 -24 -35
-4 12 -25 15 -101 15 l-95 0 1 -32 c1 -24 3 -27 6 -10 4 21 9 22 85 22 69 0
79 -2 74 -16 -3 -9 -6 -24 -6 -35 0 -17 -8 -19 -80 -19 l-80 0 1 -32 c1 -24 3
-27 6 -10 4 19 11 22 59 23 30 1 59 3 64 4 6 1 26 3 45 4 24 1 35 6 35 16 0 8
5 15 11 15 8 0 8 4 2 13 -7 8 -5 21 7 40 14 23 19 25 29 13 14 -16 17 -60 6
-96 -17 -61 -17 -71 0 -90 29 -32 54 -34 81 -9 13 12 24 33 24 46 0 13 3 23 6
23 4 0 30 -16 58 -37 51 -36 109 -49 147 -31 9 4 37 1 62 -7 26 -8 47 -10 47
-6 0 4 18 16 40 26 48 21 161 16 186 -10 18 -18 49 -19 93 -4 31 11 41 32 21
44 -6 4 -8 10 -5 15 3 4 -3 14 -12 21 -14 13 -13 15 18 20 30 6 28 7 -17 8
-53 1 -71 16 -114 92 -31 54 -66 86 -101 91 -19 3 -40 7 -48 9 -8 2 -17 -4
-19 -13 -3 -15 4 -18 45 -18 l49 0 59 -90 c44 -67 65 -91 85 -95 23 -5 55 -46
51 -65 -1 -2 -20 -3 -43 -1 -28 2 -47 9 -56 22 -11 16 -26 19 -107 19 -84 0
-95 -2 -105 -20 -8 -15 -21 -20 -55 -20 -32 0 -45 4 -45 14 0 8 -3 21 -6 29
-3 9 3 17 18 20 21 6 118 132 118 155 0 5 -7 15 -15 22 -14 12 -15 10 -11 -14
3 -19 -2 -33 -20 -51 -13 -13 -24 -29 -24 -35 0 -26 -45 -49 -93 -50 -41 0
-50 3 -54 20 -3 11 -9 17 -14 14 -5 -3 -9 2 -9 11 0 9 4 14 9 11 5 -4 11 -3
13 2 1 4 20 18 41 31 43 26 44 33 17 68 l-20 26 33 16 c17 10 52 24 77 31 25
8 55 25 66 37 21 23 40 32 29 13 -13 -21 8 -8 80 51 41 33 75 65 75 70 0 5 9
9 20 9 11 0 20 6 20 14 0 8 15 35 34 59 19 25 42 60 52 78 9 18 23 39 30 47
15 14 19 42 6 42 -4 0 -13 -15 -21 -32z m-635 -461 c4 -3 -5 -12 -20 -18 -29
-13 -54 -1 -41 20 7 12 49 10 61 -2z m-84 -53 l-4 -55 72 55 c63 49 78 56 117
56 42 0 44 -1 41 -27 -2 -20 -10 -29 -33 -35 -16 -4 -43 -19 -60 -33 l-30 -25
25 -21 c14 -11 44 -29 66 -40 31 -14 43 -26 47 -46 3 -16 5 -28 4 -29 -1 0
-23 1 -48 4 -36 3 -58 13 -99 47 -51 41 -54 43 -77 28 -16 -11 -23 -25 -23
-48 0 -30 -2 -32 -35 -30 -19 1 -35 5 -35 9 0 3 0 17 0 31 0 16 6 25 15 25 12
0 15 14 15 64 0 54 -3 66 -19 71 -13 4 -17 12 -13 30 4 21 10 25 41 25 l36 0
-3 -56z"/>
<path d="M780 1375 c0 -10 66 -131 82 -150 36 -43 180 -185 187 -185 5 0 12 6
14 13 4 8 6 7 7 -3 0 -8 12 -23 25 -33 24 -17 25 -17 25 2 0 13 -22 34 -68 64
-82 55 -175 151 -231 237 -23 35 -41 60 -41 55z"/>
<path d="M2120 1360 c0 -13 -153 -167 -205 -206 -58 -44 -108 -71 -146 -79
-19 -4 -37 -12 -40 -17 -14 -22 -193 -48 -294 -43 -79 5 -211 35 -200 47 3 3
-10 9 -30 12 -58 11 -195 102 -249 166 -13 17 -30 30 -37 30 -7 0 -10 3 -7 6
3 3 -5 16 -19 30 -39 39 -38 21 3 -32 104 -138 281 -244 460 -275 94 -16 262
-6 349 21 152 48 278 136 380 265 55 70 63 85 45 85 -5 0 -10 -5 -10 -10z"/>
<path d="M2174 1289 c-14 -22 -23 -43 -21 -46 3 -3 11 6 18 18 7 13 18 30 26
37 13 13 18 32 8 32 -3 0 -16 -18 -31 -41z"/>
<path d="M751 948 c0 -15 -7 -31 -14 -35 -8 -4 -17 -17 -20 -28 -6 -18 -5 -18
12 3 11 12 32 23 48 23 22 1 24 3 6 6 -14 3 -23 13 -26 31 l-4 27 -2 -27z"/>
<path d="M805 878 c-2 -13 -6 -58 -7 -101 -3 -75 4 -98 17 -57 6 18 15 20 101
20 52 0 94 3 94 8 0 4 -40 6 -90 4 l-90 -3 0 75 c0 73 -14 102 -25 54z"/>
<path d="M720 845 c16 -19 16 -125 0 -156 -13 -24 -13 -24 9 -5 18 16 21 30
21 91 0 57 -3 74 -16 79 -24 9 -28 7 -14 -9z"/>
<path d="M1913 805 l-22 -35 44 0 44 0 -20 35 c-12 19 -22 35 -22 35 -1 -1
-12 -16 -24 -35z"/>
<path d="M2858 743 c29 -2 74 -2 100 0 26 2 2 3 -53 3 -55 0 -76 -1 -47 -3z"/>
</g>
</svg>
